<?xml version="1.0" encoding="UTF-8"?>
<svg width="650px" height="167px" viewBox="0 0 650 167" version="1.1" xmlns="http://www.w3.org/2000/svg" xmlns:xlink="http://www.w3.org/1999/xlink">
    <!-- Generator: Sketch 47.1 (45422) - http://www.bohemiancoding.com/sketch -->
    <title>Artboard</title>
    <desc>Created with Sketch.</desc>
    <defs></defs>
    <g id="Page-1" stroke="none" stroke-width="1" fill="none" fill-rule="evenodd">
        <g id="Artboard" fill-rule="nonzero">
            <g id="Group">
                <g id="logo">
                    <path d="M41.09,74.04 C38.99,74.04 36.75,71.24 36.75,68.86 C36.7173715,67.9582579 37.0831006,67.0878228 37.75,66.48 C60.99,44.78 85.49,32.18 109.75,32.18 C123.47,32.18 134.53,37.5 134.53,49.12 C134.53,61.72 114.79,79.78 83.99,92.8 C86.9783731,92.1240164 90.0268983,91.7488133 93.09,91.68 C100.37,91.68 104.99,94.48 104.99,100.22 C104.99,115.06 73.63,135.78 39.99,135.78 C36.35,135.78 35.09,134.78 35.09,133.12 C35.284185,131.658037 35.5646748,130.208839 35.93,128.78 C39.99,111.84 53.15,81.88 63.37,64.94 C64.91,62.28 69.67,61.02 73.73,61.02 C77.51,61.02 80.87,62.14 80.87,64.1 C80.8491051,64.6170135 80.6514302,65.1112006 80.31,65.5 C74.16922,74.6617329 68.6951072,84.253127 63.93,94.2 C97.93,80.76 116.43,62.84 116.43,49.96 C116.43,44.64 111.53,41.28 105.51,41.28 C84.79,41.28 67.15,53.28 42.79,73.48 C42.3038683,73.8552442 41.7039763,74.0528557 41.09,74.04 Z M60.41,101.48 C56.4668629,109.71399 53.144286,118.231018 50.47,126.96 C73.99,124.16 87.29,110.44 87.29,103.3 C87.29,100.64 85.47,98.82 81.55,98.82 C77.91,98.82 72.45,100.36 65.17,104.28 C64.8160883,104.438618 64.4369186,104.53341 64.05,104.56 C62.51,104.56 61.3,103.16 60.41,101.48 Z" id="Shape" fill="#ED1F74"></path>
                    <path d="M162.53,83.99 C162.523017,94.5243649 160.60531,104.970109 156.87,114.82 C153.100247,124.784556 147.443556,133.928294 140.21,141.75 C136.550476,145.681267 132.488195,149.217328 128.09,152.3 C126.97,153.05 125.87,153.82 124.73,154.54 C123.59,155.26 122.44,155.96 121.26,156.61 C120.08,157.26 118.89,157.89 117.67,158.47 C116.45,159.05 115.24,159.63 113.99,160.14 C104.019758,164.373817 93.2702311,166.462394 82.44,166.27 C77.0546362,166.168192 71.6936422,165.518171 66.44,164.33 C61.22133,163.130936 56.1309397,161.429674 51.24,159.25 C46.3797892,157.074874 41.7443238,154.428908 37.4,151.35 C33.058641,148.310792 29.0080175,144.876131 25.3,141.09 C10.2600282,125.819807 1.56924128,105.41504 0.98,83.99 C0.346198565,62.1956663 8.6565879,41.0908906 23.98,25.58 C31.5973495,17.8267036 40.6618844,11.6432502 50.66,7.38 C70.9305003,-1.20365811 93.8295774,-1.12417251 114.04,7.6 C115.28,8.13 116.49,8.74 117.72,9.31 C118.95,9.88 120.11,10.57 121.3,11.2 C122.49,11.83 123.62,12.59 124.77,13.29 C125.92,13.99 127.01,14.8 128.12,15.55 C132.539474,18.6590336 136.621678,22.221745 140.3,26.18 C147.537773,34.0250387 153.194427,43.1924855 156.96,53.18 C158.826447,58.1034286 160.235726,63.1882139 161.17,68.37 C162.114312,73.5222077 162.569669,78.7521191 162.53,83.99 Z M161.93,83.99 C161.890216,78.7872627 161.330771,73.6015133 160.26,68.51 C159.162879,63.4406792 157.537328,58.5003447 155.41,53.77 C151.14503,44.3863116 145.041327,35.9533411 137.46,28.97 C122.496038,15.1121451 102.855102,7.40932712 82.46,7.4 C62.1274378,7.4331972 42.6074579,15.3853831 28.04,29.57 C13.412242,43.9748438 4.90806602,63.4692523 4.3,83.99 C4.03257585,94.2964965 5.85944049,104.550072 9.67,114.13 C15.4515379,128.621031 25.646311,140.925429 38.81,149.3 C43.152004,152.035184 47.7545194,154.333092 52.55,156.16 C62.0936497,159.763621 72.2412184,161.498452 82.44,161.27 C92.5669741,161.088546 102.575214,159.055039 111.97,155.27 C113.14,154.81 114.28,154.27 115.45,153.77 C116.62,153.27 117.71,152.65 118.85,152.1 C119.99,151.55 121.07,150.9 122.19,150.3 C123.31,149.7 124.36,149 125.44,148.35 C129.73677,145.622064 133.77672,142.509261 137.51,139.05 C145.089692,132.059681 151.190045,123.619839 155.45,114.23 C159.730812,104.723843 161.93973,94.4155594 161.93,83.99 Z" id="Shape" fill="#EE2A7B"></path>
                    <g id="Group-2" transform="translate(172.000000, 57.000000)">
                        <path d="M31.44,21.69 C30.7434688,21.4001004 30.0741553,21.0487109 29.44,20.64 C28.7654701,20.1950811 28.1328579,19.6896607 27.55,19.13 C26.9928616,18.5982927 26.5296629,17.9761864 26.18,17.29 C25.4168443,15.9967264 25.4595642,14.3811354 26.29,13.13 C27.1523032,12.0592577 28.1624025,11.1164984 29.29,10.33 C31.0922319,9.02665727 33.00638,7.88553051 35.01,6.92 C37.5957776,5.65850089 40.2694211,4.58570142 43.01,3.71 C46.29649,2.665555 49.6650413,1.89951901 53.08,1.42 C54.41,1.24 55.87,1.1 57.45,1.01 C59.0610912,0.922221411 60.676698,0.969050592 62.28,1.15 C63.9380436,1.32737995 65.575432,1.66222422 67.17,2.15 C68.8008694,2.66019596 70.3475278,3.40825295 71.76,4.37 C73.2519523,5.29421475 74.4515919,6.62213954 75.22,8.2 C75.8292754,9.62132307 75.8863293,11.2188339 75.38,12.68 C74.66,14.9533333 72.7333333,17.1866667 69.6,19.38 C68.560216,20.1254951 67.4673007,20.7939448 66.33,21.38 C65.16,21.97 63.82,22.58 62.33,23.19 C63.2099265,24.1381521 63.9142249,25.2352322 64.41,26.43 C64.9050435,27.5104512 65.1380287,28.6925085 65.09,29.88 C64.8956744,31.4703933 64.3416628,32.995635 63.47,34.34 C62.1866284,36.3260285 60.4790094,38.0029103 58.47,39.25 C55.5762136,41.0467428 52.4272466,42.3953368 49.13,43.25 C44.3553229,44.5120728 39.4386444,45.1573238 34.5,45.17 L34.07,45.17 C32.6740902,45.162744 31.2817169,45.0288619 29.91,44.77 C28.4209872,44.4940031 26.9636107,44.0685162 25.56,43.5 C24.1528367,42.9260106 22.8117366,42.2018166 21.56,41.34 C20.3446342,40.4973342 19.2797612,39.456125 18.41,38.26 C16.6116102,35.8779902 16.6116102,32.5920098 18.41,30.21 C19.84,28.12 22.41,26.65 26.18,25.78 C26.9071933,25.6022152 27.6713641,25.6510663 28.37,25.92 C29.1318699,26.1952541 29.8173845,26.6476937 30.37,27.24 C31.2205891,27.9845595 31.5569415,29.1578818 31.23,30.24 C31.1219584,30.6116448 30.9304159,30.9536848 30.67,31.24 C30.2317303,31.6668219 29.6734465,31.9494531 29.07,32.05 C28.75,32.13 28.33,32.24 27.8,32.41 C27.2780864,32.5681517 26.7724601,32.7757599 26.29,33.03 C25.8277711,33.2668822 25.4004131,33.5663693 25.02,33.92 C24.6815238,34.2164423 24.4702316,34.6318643 24.43,35.08 C24.43,35.37 24.59,35.66 25.02,35.97 C25.5955391,36.3391741 26.2132854,36.6379753 26.86,36.86 C30.9333333,38.26 36.2266667,38.0966667 42.74,36.37 C43.74,36.12 44.74,35.82 45.87,35.48 C48.229348,34.7468001 50.4947627,33.7399491 52.62,32.48 C53.6707493,31.8523057 54.6469784,31.1075535 55.53,30.26 C56.1337464,29.7238691 56.6619038,29.1082461 57.1,28.43 C57.3292791,28.0882194 57.4764438,27.698062 57.53,27.29 C57.5231834,27.1658049 57.4652661,27.0499703 57.37,26.97 C57.0473775,26.7028851 56.6554898,26.5329515 56.24,26.48 C55.7367379,26.4072132 55.2269576,26.3904441 54.72,26.43 C54.1769341,26.4636868 53.6361229,26.5271153 53.1,26.62 L51.65,26.86 L51.05,26.97 C50.2504565,27.1092193 49.4277409,27.0154922 48.68,26.7 C47.9035636,26.4090713 47.2148859,25.9235535 46.68,25.29 C46.0133333,26.45 45.4033333,27.62 44.85,28.8 C44.27,29.99 43.73,31.22 43.23,32.48 C43.060849,32.9196146 42.7820019,33.3086236 42.42,33.61 C42.0440419,33.9052216 41.5944808,34.0919624 41.12,34.15 C40.9815705,34.1957901 40.8352429,34.2128049 40.69,34.2 C40.0579531,34.198364 39.436135,34.0403328 38.88,33.74 C38.3006965,33.450679 37.7920377,33.0376071 37.39,32.53 C36.6468663,31.6857328 36.438403,30.49672 36.85,29.45 C39.06404,23.9458477 41.988874,18.7551078 45.55,14.01 C45.8955761,13.5548958 46.3639442,13.2079566 46.9,13.01 C47.4532686,12.8096338 48.0464327,12.7444886 48.63,12.82 C49.3467368,12.9266807 50.0302846,13.1932644 50.63,13.6 C51.2085932,13.9706325 51.6617206,14.5074143 51.93,15.14 C52.3378537,15.9918136 52.212911,17.0030685 51.61,17.73 C50.99,18.49 50.38,19.32 49.77,20.22 C50.85,19.86 52.14,19.39 53.63,18.81 C55.12,18.23 56.63,17.55 58.27,16.76 C59.8994048,15.9550333 61.4699724,15.0360841 62.97,14.01 C64.4573008,12.9966745 65.8259042,11.8192732 67.05,10.5 C67.3312022,10.2520052 67.5679447,9.95776812 67.75,9.63 C67.797669,9.52743839 67.8345343,9.42019401 67.86,9.31 L67.7,9.15 C67.496705,9.00173372 67.2789291,8.87441859 67.05,8.77 C65.4044307,7.99723734 63.625282,7.54905484 61.81,7.45 C59.4710183,7.2913795 57.1214935,7.40885574 54.81,7.8 C50.7842615,8.44981487 46.8945664,9.76440339 43.3,11.69 C41.5801001,12.592729 39.952388,13.6611244 38.44,14.88 C37.969479,15.2116212 37.5339045,15.5902359 37.14,16.01 C36.56,16.59 36.04,17.13 35.57,17.63 C36.1571609,18.3799182 36.3401782,19.3697059 36.06,20.28 C35.9075442,20.6864007 35.6687158,21.0548789 35.36,21.36 C34.7564179,21.8617128 33.9831284,22.1123159 33.2,22.06 L33.14,22.06 C32.5547795,22.047413 31.9775153,21.9217731 31.44,21.69 L31.44,21.69 Z" id="Shape" fill="#ED1F74"></path>
                        <path d="M84.3,8.11 C84.8748243,7.72606394 85.5155468,7.45146861 86.19,7.3 C86.9943823,7.09196186 87.8195138,6.97456511 88.65,6.95 C89.3779852,6.92055744 90.1062335,7.00147392 90.81,7.19 C91.44,7.37 91.81,7.68 91.81,8.11 C91.7406367,8.61458338 91.5368539,9.09122785 91.22,9.49 C90.79,10.19 90.22,11.05 89.49,12.05 C88.76,13.05 87.94,14.19 87.01,15.43 C86.08,16.67 85.13,17.93 84.2,19.21 C83.27,20.49 82.35,21.75 81.47,22.99 C80.59,24.23 79.82,25.38 79.18,26.44 C78.627874,27.3205329 78.146368,28.2434195 77.74,29.2 C77.44,29.97 77.39,30.52 77.61,30.85 C77.83,31.18 78.3,31.22 79.04,30.98 C79.9515618,30.6630752 80.8212617,30.23662 81.63,29.71 C82.740363,29.0144063 83.805806,28.2495585 84.82,27.42 C85.9385399,26.5119866 87.0099376,25.5473949 88.03,24.53 C88.5105705,23.9602719 89.1210537,23.5144135 89.81,23.23 C90.1998224,23.038369 90.6608623,23.0610431 91.03,23.29 C91.329694,23.5955079 91.4440027,24.0375016 91.33,24.45 C91.1706601,25.1903293 90.8266595,25.8783305 90.33,26.45 C89.6067248,27.3721019 88.8144453,28.2379263 87.96,29.04 C86.96,30.04 85.89,30.94 84.77,31.82 C83.65,32.7 82.57,33.49 81.51,34.2 C80.713191,34.761037 79.8499512,35.2212077 78.94,35.57 C77.751898,35.9524731 76.5171913,36.1711541 75.27,36.22 C74.2290751,36.2726302 73.1869186,36.1440525 72.19,35.84 C71.3806379,35.6114205 70.645911,35.1733439 70.06,34.57 C69.5349493,34.0105798 69.251164,33.2669905 69.27,32.5 C69.3384218,31.2602585 69.6332847,30.0435255 70.14,28.91 C70.7821714,27.3021021 71.5304868,25.7386574 72.38,24.23 C73.3,22.58 74.32,20.89 75.46,19.16 C76.6,17.43 77.72,15.82 78.83,14.32 C79.94,12.82 80.98,11.54 81.94,10.44 C82.6478466,9.58735402 83.4383686,8.80688106 84.3,8.11 L84.3,8.11 Z" id="Shape" fill="#ED1F74"></path>
                        <path d="M101.3,15.24 C103.353327,14.7784225 105.470309,14.6702062 107.56,14.92 C109.195059,15.0471376 110.742113,15.7116679 111.96,16.81 C113.024833,17.9223879 113.506116,19.4699007 113.26,20.99 C113.1,22.77 112.083333,24.9566667 110.21,27.55 C109.020845,29.2049747 107.599597,30.6801092 105.99,31.93 C104.53297,33.0626938 102.936597,34.0037135 101.24,34.73 C99.6990332,35.3979754 98.0739915,35.8521796 96.41,36.08 C94.942706,36.2985745 93.4526755,36.3187555 91.98,36.14 C90.7456511,35.9980246 89.5522076,35.6104104 88.47,35 C87.5558996,34.5076748 86.8260727,33.7322337 86.39,32.79 C85.7094696,31.1993773 85.6736133,29.4065611 86.29,27.79 C86.971027,25.827023 88.0349176,24.0187489 89.42,22.47 C90.9635707,20.6987694 92.7635012,19.1684914 94.76,17.93 C96.7611187,16.6485358 98.9763713,15.7373693 101.3,15.24 Z M95.41,31.49 C96.4105324,31.6137696 97.4215922,31.3645647 98.25,30.79 C99.29622,30.1316834 100.248243,29.3344058 101.08,28.42 C101.987709,27.4313148 102.791895,26.3523651 103.48,25.2 C104.118721,24.1771148 104.635568,23.0830099 105.02,21.94 C105.331027,21.1314089 105.417415,20.2537133 105.27,19.4 C105.106891,18.7313506 104.460595,18.2975954 103.78,18.4 C103.039301,18.5098691 102.345407,18.8290606 101.78,19.32 C100.833875,20.0185275 99.9474861,20.7945356 99.13,21.64 C98.1972637,22.6040915 97.322401,23.6225385 96.51,24.69 C95.7676047,25.6637901 95.1180985,26.7050087 94.57,27.8 C94.1503203,28.5691936 93.9367363,29.4338642 93.95,30.31 C93.99,30.98 94.47,31.39 95.37,31.49 L95.41,31.49 Z" id="Shape" fill="#ED1F74"></path>
                        <path d="M128.63,16.86 C127.45,18.19 126.31,19.52 125.23,20.86 C124.240487,22.0479425 123.322212,23.2934572 122.48,24.59 C121.805109,25.5958271 121.241787,26.6721749 120.8,27.8 C120.447088,28.5650144 120.411139,29.4385751 120.7,30.23 C120.77,30.41 120.94,30.44 121.21,30.31 C121.574707,30.1128423 121.911086,29.8672853 122.21,29.58 C122.6,29.22 123.05,28.77 123.53,28.23 C124.05705,27.6419062 124.554338,27.0278049 125.02,26.39 C125.484763,25.3057598 126.03308,24.2592761 126.66,23.26 C127.29,22.26 127.93,21.32 128.58,20.45 C129.187331,19.6446064 129.834817,18.8702934 130.52,18.13 C131.070433,17.5410142 131.669189,16.9991234 132.31,16.51 C132.999522,16.0612582 133.783085,15.7772592 134.6,15.68 C135.5273,15.5156627 136.472691,15.4786545 137.41,15.57 C138.123608,15.5994471 138.815428,15.8242885 139.41,16.22 C139.86,16.56 139.79,17.05 139.22,17.7 C138.82,18.13 138.34,18.7 137.76,19.37 C137.18,20.04 136.56,20.8 135.9,21.62 C135.24,22.44 134.57,23.26 133.9,24.13 C133.294921,24.9252155 132.734072,25.7531345 132.22,26.61 C131.80036,27.2986035 131.439099,28.0211261 131.14,28.77 C130.905675,29.2373812 130.848827,29.7738906 130.98,30.28 C131.16,30.79 131.58,30.89 132.25,30.58 C133.117005,30.1365069 133.918031,29.5744429 134.63,28.91 C135.664933,27.9653543 136.646453,26.9638034 137.57,25.91 C138.61,24.7433333 139.59,23.5366667 140.51,22.29 C141.43,21.04 142.24,19.85 142.94,18.7 C143.524732,17.7906578 143.988628,16.8090807 144.32,15.78 C144.456435,15.0879504 145.045604,14.5770629 145.75,14.54 C146.530692,14.4777443 147.307799,14.6977474 147.94,15.16 C148.710934,15.7131077 149.324425,16.4575686 149.72,17.32 C150.198544,18.3801566 150.273226,19.5786352 149.93,20.69 C149.54032,22.2705241 148.862298,23.7655611 147.93,25.1 C146.876706,26.6618633 145.663485,28.1096857 144.31,29.42 C142.941009,30.7552404 141.439978,31.9480245 139.83,32.98 C138.384798,33.9272904 136.812448,34.664645 135.16,35.17 C132.42,35.92 130.23,35.95 128.57,35.25 C127.01848,34.6518292 125.813033,33.3950868 125.28,31.82 C123.689828,33.3412045 121.789838,34.5009833 119.71,35.22 C118.376691,35.692639 116.92436,35.7102217 115.58,35.27 C114.512715,34.8635238 113.649814,34.0509585 113.18,33.01 C112.674177,31.8914312 112.54097,30.6399817 112.8,29.44 C113.091323,28.0608456 113.537484,26.7190075 114.13,25.44 C114.751489,24.0553154 115.508512,22.7355481 116.39,21.5 C117.243208,20.2932021 118.222017,19.1803097 119.31,18.18 C120.274902,17.262572 121.400282,16.5303972 122.63,16.02 C123.455161,15.6937497 124.318952,15.4752811 125.2,15.37 C125.948489,15.2627919 126.706877,15.2426577 127.46,15.31 C127.948821,15.3306225 128.416821,15.5136 128.79,15.83 C129.05,16.08 128.99,16.43 128.63,16.86 Z" id="Shape" fill="#ED1F74"></path>
                        <path d="M176.42,41.16 C173.611113,40.2840526 171.0252,38.8102865 168.84,36.84 C167.03222,35.1841436 165.808045,32.9883445 165.35,30.58 C165.169819,29.4790078 165.142896,28.3583744 165.27,27.25 C165.447452,25.8349178 165.85978,24.4593629 166.49,23.18 C167.327807,21.4587726 168.368536,19.8439637 169.59,18.37 C171.260757,16.3657496 173.134027,14.5393958 175.18,12.92 C178.047803,10.5036736 181.173366,8.41102184 184.5,6.68 C187.140092,5.31798779 189.906463,4.21612824 192.76,3.39 C195.001907,2.73855549 197.30953,2.33941717 199.64,2.2 C201.349732,2.10493054 203.064063,2.13166474 204.77,2.28 C207.196045,2.52725875 209.562776,3.18318107 211.77,4.22 C213.689184,5.09523783 215.374833,6.41086632 216.69,8.06 C218.390982,10.1470336 219.256888,12.7910762 219.12,15.48 C218.850694,18.4801046 217.726197,21.339935 215.88,23.72 C213.945837,26.3645981 211.646256,28.7214154 209.05,30.72 C206.253099,32.9161053 203.260549,34.8508861 200.11,36.5 C197.020826,38.1211517 193.782501,39.4405931 190.44,40.44 C187.525257,41.3545586 184.494383,41.8462337 181.44,41.9 C179.738676,41.9114197 178.045663,41.661852 176.42,41.16 L176.42,41.16 Z M211.36,12.22 C211.402954,11.1034753 210.761189,10.0734815 209.74,9.62 C208.25491,8.86587568 206.604974,8.49464018 204.94,8.54 C203.205854,8.56341454 201.481841,8.80874202 199.81,9.27 C197.896889,9.78836486 196.027737,10.4571135 194.22,11.27 C192.290591,12.1388556 190.414011,13.1205542 188.6,14.21 C186.778934,15.3079091 185.022687,16.5099037 183.34,17.81 C181.747289,19.0390231 180.240444,20.3754709 178.83,21.81 C177.591102,23.0442986 176.460295,24.3825313 175.45,25.81 C175.06,26.42 174.68,27.07 174.32,27.75 C173.977145,28.3791187 173.721468,29.0519544 173.56,29.75 C173.42105,30.4094265 173.42105,31.0905735 173.56,31.75 C173.676815,32.4106285 174.032795,33.005114 174.56,33.42 C175.846667,34.54 177.753333,35 180.28,34.8 C183.350389,34.4517823 186.343194,33.6039332 189.14,32.29 C191.012657,31.4774563 192.832852,30.5489899 194.59,29.51 C196.39,28.45 198.11,27.3233333 199.75,26.13 C201.329836,24.9954751 202.842387,23.7700749 204.28,22.46 C205.572235,21.2964761 206.791231,20.0541019 207.93,18.74 C208.864774,17.6619589 209.68891,16.4927579 210.39,15.25 C210.944945,14.3293488 211.277107,13.2917704 211.36,12.22 L211.36,12.22 Z" id="Shape" fill="#ED1F74"></path>
                        <path d="M229.07,16.54 C229.979161,15.8757085 231.056901,15.4806527 232.18,15.4 C233.136011,15.3125072 234.099769,15.4248889 235.01,15.73 C235.673075,15.9183063 236.247397,16.336639 236.63,16.91 C236.92,17.42 236.78,17.91 236.2,18.43 L234.5,19.83 C233.76,20.44 232.97,21.12 232.12,21.83 C231.27,22.54 230.43,23.34 229.59,24.15 C228.814543,24.879124 228.083246,25.6538318 227.4,26.47 C226.871771,27.080382 226.418543,27.7518299 226.05,28.47 C225.76,29.09 225.76,29.55 226.05,29.88 C226.34,30.21 226.85,30.13 227.7,29.66 C228.761851,29.0413999 229.765897,28.3285267 230.7,27.53 C231.833333,26.5833333 233.056667,25.4933333 234.37,24.26 C235.68,23.04 236.95,21.82 238.18,20.62 L241.47,17.35 C242.47,16.35 243.16,15.68 243.63,15.24 C244.128799,14.6724865 244.883927,14.4006403 245.63,14.52 C246.26551,14.6817629 246.828695,15.0513529 247.23,15.57 C247.66921,16.1267622 247.955326,16.7886205 248.06,17.49 C248.201443,18.1353486 248.116707,18.809707 247.82,19.4 C247.61,19.73 247.28,20.19 246.82,20.81 C246.36,21.43 245.89,22.09 245.33,22.81 L243.66,25.05 C243.1,25.81 242.6,26.52 242.15,27.18 C241.7,27.84 241.34,28.44 241.07,28.94 C240.8,29.44 240.7,29.77 240.77,29.94 C240.95,30.37 241.42,30.46 242.18,30.19 C243.075372,29.8451669 243.925054,29.3917797 244.71,28.84 C245.65,28.21 246.61,27.48 247.6,26.67 C248.45724,25.9864737 249.278349,25.2588241 250.06,24.49 C250.497413,24.0378422 251.03531,23.6952329 251.63,23.49 C251.962381,23.3497892 252.344516,23.3994667 252.63,23.62 C252.865404,23.9208806 252.926108,24.3230421 252.79,24.68 C252.599219,25.3192718 252.256054,25.9026536 251.79,26.38 C251.21,27.03 250.33,27.91 249.14,29.02 C247.889953,30.1989517 246.552833,31.2820187 245.14,32.26 C243.619198,33.3142168 241.989916,34.2026111 240.28,34.91 C238.684796,35.607607 236.948604,35.9226556 235.21,35.83 C234.608204,35.8626061 234.04086,35.5478463 233.75,35.02 C233.479605,34.4291566 233.392525,33.7708262 233.5,33.13 C233.626982,32.2601675 233.88314,31.4141723 234.26,30.62 C234.686139,29.6793157 235.201851,28.7818423 235.8,27.94 C235.330719,28.2468026 234.894992,28.6020884 234.5,29 C233.86,29.59 233.05,30.28 232.1,31.05 C231.15,31.82 230.1,32.62 229,33.42 C227.948251,34.1791757 226.834297,34.8482175 225.67,35.42 C224.678004,35.9141572 223.615379,36.2514985 222.52,36.42 C221.600361,36.5821398 220.655145,36.3458358 219.92,35.77 C218.576011,34.8283403 217.664904,33.387856 217.39,31.77 C217.199944,30.1308444 217.517581,28.4728498 218.3,27.02 C219.333332,25.0723369 220.68534,23.3113462 222.3,21.81 C224.391063,19.8503548 226.657192,18.0863219 229.07,16.54 L229.07,16.54 Z" id="Shape" fill="#ED1F74"></path>
                        <path d="M253.59,15.13 C254.09,14.92 254.69,14.68 255.37,14.43 C256.05,14.18 256.81,13.93 257.64,13.67 C258.4,12.77 259.11,11.99 259.77,11.33 C260.2923,10.776311 260.883849,10.2923165 261.53,9.89 C263.043317,8.91907965 264.651622,8.10487519 266.33,7.46 C267.52,7.07 268.33,7.32 268.71,8.22 C268.78,8.4 268.65,8.77 268.3,9.33 C267.95,9.89 267.49,10.58 266.87,11.41 C268.2,11.15 269.34,10.98 270.28,10.89 C270.874341,10.762855 271.492844,10.8115013 272.06,11.03 C272.308092,11.2193751 272.501363,11.4713172 272.62,11.76 C272.791406,12.1210283 272.857271,12.5231539 272.81,12.92 C272.755562,13.4210067 272.580572,13.9013707 272.3,14.32 C271.919191,14.8954958 271.413258,15.3774996 270.82,15.73 C270.399033,15.9801412 269.944421,16.1687212 269.47,16.29 C268.811998,16.4735999 268.144302,16.620493 267.47,16.73 C266.71,16.85 265.9,16.97 265.04,17.08 C264.18,17.19 263.29,17.27 262.39,17.35 C261.35,18.6833333 260.35,20.05 259.39,21.45 C258.43,22.85 257.576667,24.1366667 256.83,25.31 C256.202618,26.3161976 255.660719,27.3732346 255.21,28.47 C254.84,29.37 254.81,30 255.1,30.36 C255.59121,31.0395693 256.483143,31.2955872 257.26,30.98 C258.336775,30.6464085 259.350597,30.1361182 260.26,29.47 C261.322309,28.6997986 262.325142,27.8507337 263.26,26.93 C264.26,25.93 265.03,25.18 265.61,24.53 C266.010177,23.9887312 266.580762,23.5977747 267.23,23.42 C267.638789,23.3022378 268.078835,23.4307468 268.36,23.75 C268.624963,24.1125486 268.723141,24.5707148 268.63,25.01 C268.505154,25.6519211 268.183618,26.2390735 267.71,26.69 C267.17,27.3 266.44,28.07 265.53,29.01 C264.62,29.95 263.64,30.88 262.61,31.82 C261.621054,32.7194367 260.586344,33.5672311 259.51,34.36 C258.681359,35.0002158 257.747348,35.49091 256.75,35.81 C255.811872,36.0462793 254.854904,36.2001971 253.89,36.27 C252.84304,36.3638463 251.787921,36.2997975 250.76,36.08 C249.810741,35.8946596 248.915316,35.4982118 248.14,34.92 C247.38357,34.330003 246.935005,33.4291967 246.92,32.47 C246.892765,31.5750165 247.070636,30.6856637 247.44,29.87 C247.92252,28.6402191 248.48024,27.4412878 249.11,26.28 C249.81,24.97 250.62,23.58 251.54,22.13 C252.46,20.68 253.4,19.25 254.38,17.89 L252.76,18.05 C252.29,18.12 251.99,18.05 251.86,17.83 C251.745756,17.572085 251.745756,17.277915 251.86,17.02 C252.002855,16.6464841 252.220659,16.3061652 252.5,16.02 C252.807885,15.661252 253.176928,15.3599234 253.59,15.13 L253.59,15.13 Z" id="Shape" fill="#ED1F74"></path>
                        <path d="M327.03,24.74 C326.557728,26.0700752 325.811658,27.2862713 324.84,28.31 C323.6,29.78 321.95,31.66 319.9,33.92 C318.533333,35.4 317.2,36.86 315.9,38.3 C314.762295,39.5644561 313.706798,40.9005278 312.74,42.3 C312.443077,42.717634 312.028943,43.0378053 311.55,43.22 C311.067943,43.4035036 310.555778,43.4950829 310.04,43.49 C309.380514,43.4861896 308.725773,43.3781911 308.1,43.17 C307.505968,42.9771626 306.940822,42.7046812 306.42,42.36 C305.689842,41.9361957 305.165655,41.2312548 304.97,40.41 C304.846035,39.7910385 304.979641,39.1482875 305.34,38.63 C305.74,38.09 306.14,37.57 306.53,37.07 C306.914666,36.5755439 307.328748,36.1046923 307.77,35.66 C306.3,36.27 304.94,36.82 303.7,37.31 C302.46,37.8 301.53,38.13 300.92,38.31 C298.715766,38.9009485 296.450891,39.2364855 294.17,39.31 C292.454624,39.3714205 290.738241,39.2202713 289.06,38.86 C287.767602,38.5791165 286.528561,38.0929536 285.39,37.42 C284.499746,36.8871393 283.674241,36.2529092 282.93,35.53 C281.420388,33.9497233 280.408465,31.9606504 280.02,29.81 C279.599842,27.412914 279.764505,24.9498279 280.5,22.63 C281.697418,18.9140358 283.927612,15.615569 286.93,13.12 C290.683562,9.90064885 294.95801,7.34409636 299.57,5.56 C301.781284,4.66855023 304.041623,3.90397479 306.34,3.27 C308.530523,2.65878395 310.758588,2.19112422 313.01,1.87 C315.049679,1.57167908 317.108628,1.42461133 319.17,1.43 C320.912454,1.42745368 322.649791,1.61862784 324.35,2 C327.1912,2.67765142 329.834788,4.00971866 332.07,5.89 C333.071121,6.75561205 333.668553,7.99754756 333.72,9.32 C333.759054,10.685929 333.263994,12.0132619 332.34,13.02 C330.94,14.7066667 328.42,15.84 324.78,16.42 C324.226184,16.5294129 323.654537,16.5088747 323.11,16.36 C322.551629,16.2253345 322.015959,16.0097189 321.52,15.72 C321.058443,15.4599035 320.645628,15.1215303 320.3,14.72 C319.989836,14.3477153 319.78599,13.8985635 319.71,13.42 C319.638578,12.8708552 319.774032,12.3147804 320.09,11.86 C320.555541,11.2807783 321.23923,10.9190382 321.98,10.86 C323.12842,10.7192545 324.248255,10.4021927 325.3,9.92 C326,9.54 326.37,9.19 326.4,8.86 C326.4,8.79333333 326.23,8.62333333 325.89,8.35 C325.323485,7.98780197 324.691641,7.73982012 324.03,7.62 C322.563749,7.37196635 321.066251,7.37196635 319.6,7.62 C317.441626,7.91470423 315.311122,8.38629144 313.23,9.03 C310.735756,9.7873463 308.291036,10.6991067 305.91,11.76 C303.394598,12.8585938 300.967437,14.1490678 298.65,15.62 C296.416766,17.0198385 294.335521,18.6486387 292.44,20.48 C290.716499,22.1058334 289.306419,24.0345249 288.28,26.17 C287.978925,26.8280037 287.786431,27.5304352 287.71,28.25 C287.640606,29.0829239 287.90297,29.9095496 288.44,30.55 C289.568455,31.7665879 291.092401,32.5427371 292.74,32.74 C294.971586,33.1062971 297.252676,33.0418019 299.46,32.55 C301.08149,32.1844331 302.662604,31.6585117 304.18,30.98 C306.058933,30.1789241 307.8888,29.2673299 309.66,28.25 C311.33559,27.3062401 312.951937,26.2609584 314.5,25.12 C315.600884,24.3676166 316.576202,23.4462953 317.39,22.39 C317.699226,21.8636494 318.184433,21.4634415 318.76,21.26 C319.403622,21.0329513 320.077956,20.9048278 320.76,20.88 C321.475261,20.8496229 322.191409,20.9135047 322.89,21.07 C323.534757,21.2071024 324.16695,21.3977638 324.78,21.64 C325.301274,21.8360005 325.784982,22.1201367 326.21,22.48 C326.506598,22.7209368 326.745734,23.024982 326.91,23.37 C327.032175,23.6298216 327.096977,23.9129027 327.1,24.2 C327.092398,24.3816917 327.068976,24.5623752 327.03,24.74 L327.03,24.74 Z" id="Shape" fill="#ED1F74"></path>
                        <path d="M342.42,15.24 C344.473327,14.7784225 346.590309,14.6702062 348.68,14.92 C350.315059,15.0471376 351.862113,15.7116679 353.08,16.81 C354.144833,17.9223879 354.626116,19.4699007 354.38,20.99 C354.22,22.77 353.22,24.9566667 351.38,27.55 C350.191577,29.2023438 348.77403,30.6771322 347.17,31.93 C345.70802,33.0607158 344.108605,34.001548 342.41,34.73 C340.869033,35.3979754 339.243992,35.8521796 337.58,36.08 C336.112706,36.2985745 334.622675,36.3187555 333.15,36.14 C331.915651,35.9980246 330.722208,35.6104104 329.64,35 C328.7259,34.5076748 327.996073,33.7322337 327.56,32.79 C326.87947,31.1993773 326.843613,29.4065611 327.46,27.79 C328.141027,25.827023 329.204918,24.0187489 330.59,22.47 C332.135876,20.7011043 333.935435,19.1711419 335.93,17.93 C337.915889,16.6540208 340.113743,15.7430462 342.42,15.24 L342.42,15.24 Z M336.53,31.49 C337.530532,31.6137696 338.541592,31.3645647 339.37,30.79 C340.41622,30.1316834 341.368243,29.3344058 342.2,28.42 C343.107709,27.4313148 343.911895,26.3523651 344.6,25.2 C345.238721,24.1771148 345.755568,23.0830099 346.14,21.94 C346.451027,21.1314089 346.537415,20.2537133 346.39,19.4 C346.226891,18.7313506 345.580595,18.2975954 344.9,18.4 C344.159301,18.5098691 343.465407,18.8290606 342.9,19.32 C341.955148,20.0162575 341.071896,20.7924481 340.26,21.64 C339.32173,22.5990314 338.446564,23.6178309 337.64,24.69 C336.891147,25.6613002 336.2381,26.7028263 335.69,27.8 C335.27032,28.5691936 335.056736,29.4338642 335.07,30.31 C335.16,30.98 335.63,31.39 336.53,31.49 Z" id="Shape" fill="#ED1F74"></path>
                        <path d="M381.3,41.16 C378.48718,40.2862465 375.897555,38.8123093 373.71,36.84 C371.901899,35.1858814 370.680524,32.9888103 370.23,30.58 C370.044791,29.479483 370.017852,28.3581412 370.15,27.25 C370.323564,25.8353535 370.732541,24.4597046 371.36,23.18 C372.198308,21.4567824 373.242606,19.8416465 374.47,18.37 C376.134368,16.3632659 378.004596,14.5366092 380.05,12.92 C382.917803,10.5036736 386.043366,8.41102184 389.37,6.68 C392.010092,5.31798779 394.776463,4.21612824 397.63,3.39 C399.875109,2.73765955 402.186145,2.33851102 404.52,2.2 C406.229737,2.10516686 407.944051,2.1319008 409.65,2.28 C412.075549,2.52989515 414.441844,3.18569707 416.65,4.22 C418.564585,5.09818 420.246343,6.41344515 421.56,8.06 C423.260982,10.1470336 424.126888,12.7910762 423.99,15.48 C423.73018,18.4823386 422.604665,21.3447606 420.75,23.72 C418.818541,26.3668857 416.51861,28.7240632 413.92,30.72 C411.123099,32.9161053 408.130549,34.8508861 404.98,36.5 C401.893451,38.1193249 398.658624,39.438706 395.32,40.44 C392.404876,41.35295 389.374236,41.8445872 386.32,41.9 C384.618554,41.9131675 382.925275,41.6635606 381.3,41.16 L381.3,41.16 Z M416.23,12.22 C416.272954,11.1034753 415.631189,10.0734815 414.61,9.62 C413.12491,8.86587568 411.474974,8.49464018 409.81,8.54 C408.075854,8.56341454 406.351841,8.80874202 404.68,9.27 C402.766889,9.78836486 400.897737,10.4571135 399.09,11.27 C395.218037,13.0131648 391.565973,15.2084312 388.21,17.81 C386.617289,19.0390231 385.110444,20.3754709 383.7,21.81 C382.461102,23.0442986 381.330295,24.3825313 380.32,25.81 C379.93,26.42 379.55,27.07 379.19,27.75 C378.85134,28.3810398 378.59588,29.0533039 378.43,29.75 C378.29105,30.4094265 378.29105,31.0905735 378.43,31.75 C378.546815,32.4106285 378.902795,33.005114 379.43,33.42 C380.73,34.54 382.63,35 385.15,34.8 C388.220633,34.4530217 391.213637,33.6051164 394.01,32.29 C395.885922,31.4775271 397.709449,30.5490649 399.47,29.51 C401.256667,28.45 402.973333,27.3233333 404.62,26.13 C406.201107,24.9929665 407.716846,23.7676885 409.16,22.46 C410.44907,21.2964424 411.664737,20.0540577 412.8,18.74 C413.741232,17.6670289 414.565856,16.4971356 415.26,15.25 C415.814945,14.3293488 416.147107,13.2917704 416.23,12.22 Z" id="Shape" fill="#ED1F74"></path>
                        <path d="M433.95,16.54 C434.854252,15.8735919 435.929439,15.4782007 437.05,15.4 C438.009288,15.3134394 438.976119,15.4257824 439.89,15.73 C440.553075,15.9183063 441.127397,16.336639 441.51,16.91 C441.79,17.42 441.65,17.91 441.07,18.43 L439.37,19.83 C438.63,20.44 437.84,21.12 437,21.83 C436.16,22.54 435.3,23.34 434.46,24.15 C433.684543,24.879124 432.953246,25.6538318 432.27,26.47 C431.741771,27.080382 431.288543,27.7518299 430.92,28.47 C430.63,29.09 430.63,29.55 430.92,29.88 C431.21,30.21 431.72,30.13 432.57,29.66 C433.633321,29.0436848 434.63757,28.3306686 435.57,27.53 C436.7,26.58 437.93,25.53 439.24,24.26 C440.55,22.99 441.82,21.82 443.05,20.62 L446.34,17.35 C447.34,16.35 448.03,15.68 448.5,15.24 C449.000972,14.6756878 449.754293,14.4044923 450.5,14.52 C451.132815,14.6816485 451.692852,15.0514838 452.09,15.57 C452.528118,16.1285133 452.817159,16.7891783 452.93,17.49 C453.063522,18.1366761 452.975459,18.8094733 452.68,19.4 C452.47,19.73 452.14,20.19 451.68,20.81 C451.22,21.43 450.76,22.09 450.2,22.81 L448.52,25.05 C447.97,25.81 447.46,26.52 447.01,27.18 C446.56,27.84 446.2,28.44 445.93,28.94 C445.66,29.44 445.56,29.77 445.63,29.94 C445.81,30.37 446.28,30.46 447.04,30.19 C447.937733,29.8434704 448.790525,29.3902149 449.58,28.84 C450.51,28.21 451.47,27.48 452.47,26.67 C453.324224,25.9866733 454.142014,25.2590068 454.92,24.49 C455.357413,24.0378422 455.89531,23.6952329 456.49,23.49 C456.822381,23.3497892 457.204516,23.3994667 457.49,23.62 C457.723346,23.9213867 457.787396,24.3207584 457.66,24.68 C457.4674,25.3184775 457.124475,25.9014492 456.66,26.38 C456.08,27.03 455.2,27.91 454.01,29.02 C452.74808,30.2057183 451.393805,31.2891378 449.96,32.26 C448.439198,33.3142168 446.809916,34.2026111 445.1,34.91 C443.505014,35.60832 441.768651,35.9233995 440.03,35.83 C439.428765,35.860183 438.862619,35.5460886 438.57,35.02 C438.308206,34.426661 438.224813,33.7699398 438.33,33.13 C438.453074,32.2605354 438.705888,31.4144534 439.08,30.62 C439.510039,29.6813194 440.025546,28.7842036 440.62,27.94 C440.154592,28.2478965 439.722291,28.6031212 439.33,29 C438.68,29.59 437.88,30.28 436.92,31.05 C435.96,31.82 434.92,32.62 433.82,33.42 C432.771577,34.178891 431.660968,34.8479325 430.5,35.42 C429.504515,35.9142391 428.438585,36.2515586 427.34,36.42 C426.423506,36.5817702 425.4815,36.3453596 424.75,35.77 C423.400585,34.8318099 422.485226,33.3903001 422.21,31.77 C422.019052,30.1296617 422.34042,28.4704256 423.13,27.02 C424.162376,25.0717229 425.5145,23.3105817 427.13,21.81 C429.237345,19.8484164 431.52025,18.0843532 433.95,16.54 L433.95,16.54 Z" id="Shape" fill="#ED1F74"></path>
                        <path d="M458.46,15.13 C458.97,14.92 459.56,14.68 460.24,14.43 C460.92,14.18 461.68,13.93 462.51,13.67 C463.27,12.77 463.98,11.99 464.65,11.33 C465.169058,10.7768231 465.757234,10.2928378 466.4,9.89 C467.91656,8.91859565 469.52823,8.10438355 471.21,7.46 C472.39,7.07 473.21,7.32 473.58,8.22 C473.65,8.4 473.52,8.77 473.18,9.33 C472.84,9.89 472.36,10.58 471.75,11.41 C473.08,11.15 474.21,10.98 475.15,10.89 C475.744263,10.7616816 476.363105,10.8103546 476.93,11.03 C477.181424,11.2184293 477.37816,11.4703886 477.5,11.76 C477.662298,12.1238146 477.727751,12.5234187 477.69,12.92 C477.62698,13.4205306 477.449006,13.8996929 477.17,14.32 C476.791917,14.897773 476.2854,15.3803333 475.69,15.73 C475.269033,15.9801412 474.814421,16.1687212 474.34,16.29 C473.68226,16.4746488 473.014505,16.621555 472.34,16.73 C471.58,16.85 470.77,16.97 469.91,17.08 C469.05,17.19 468.16,17.27 467.26,17.35 C466.22,18.6833333 465.203333,20.05 464.21,21.45 C463.216667,22.85 462.363333,24.1366667 461.65,25.31 C461.03047,26.3206283 460.4889,27.3770236 460.03,28.47 C459.67,29.37 459.63,30 459.92,30.36 C460.41121,31.0395693 461.303143,31.2955872 462.08,30.98 C463.158484,30.6506576 464.172992,30.140022 465.08,29.47 C466.159546,28.7018241 467.179149,27.8527122 468.13,26.93 C469.13,25.93 469.9,25.18 470.48,24.53 C470.88544,23.994217 471.453978,23.604663 472.1,23.42 C472.508789,23.3022378 472.948835,23.4307468 473.23,23.75 C473.503688,24.1085858 473.602724,24.5707544 473.5,25.01 C473.379177,25.6511569 473.061016,26.2385307 472.59,26.69 C472.05,27.3 471.32,28.07 470.4,29.01 C469.48,29.95 468.51,30.88 467.48,31.82 C466.493121,32.7218278 465.458283,33.569728 464.38,34.36 C463.552369,35.001787 462.618069,35.492633 461.62,35.81 C460.682038,36.0470858 459.724999,36.2010151 458.76,36.27 C457.713036,36.3635431 456.657962,36.2994971 455.63,36.08 C454.680741,35.8946596 453.785316,35.4982118 453.01,34.92 C452.252663,34.3318015 451.806741,33.428901 451.8,32.47 C451.768201,31.5756777 451.942707,30.6860388 452.31,29.87 C452.79252,28.6402191 453.35024,27.4412878 453.98,26.28 C454.69,24.97 455.49,23.58 456.41,22.13 C457.33,20.68 458.28,19.25 459.25,17.89 L457.63,18.05 C457.16,18.12 456.86,18.05 456.74,17.83 C456.616244,17.5741811 456.616244,17.2758189 456.74,17.02 C456.887555,16.6465229 457.108589,16.3064705 457.39,16.02 C457.689479,15.6606355 458.0521,15.3590159 458.46,15.13 L458.46,15.13 Z" id="Shape" fill="#ED1F74"></path>
                        <path d="M0.59,49.44 L117.5,48.44 L234.42,47.69 C273.42,47.42 312.36,46.86 351.34,47.19 C370.82,47.37 390.34,47.55 409.79,47.95 L439.02,48.55 C448.77,48.85 458.51,49.06 468.25,49.44 L468.25,49.94 C458.51,50.32 448.77,50.53 439.02,50.83 L409.79,51.43 C390.31,51.83 370.79,52.01 351.34,52.19 C312.34,52.52 273.34,51.96 234.42,51.69 L117.5,50.94 L0.59,49.94 L0.59,49.44 Z" id="Shape" fill="#EE2A7B"></path>
                    </g>
                </g>
            </g>
        </g>
    </g>
</svg>