<?xml version="1.0" encoding="UTF-8"?>
<svg width="88px" height="70px" viewBox="0 0 88 70" version="1.1" xmlns="http://www.w3.org/2000/svg" xmlns:xlink="http://www.w3.org/1999/xlink">
    <!-- Generator: Sketch 47.1 (45422) - http://www.bohemiancoding.com/sketch -->
    <title>trust</title>
    <desc>Created with Sketch.</desc>
    <defs></defs>
    <g id="Prototype" stroke="none" stroke-width="1" fill="none" fill-rule="evenodd">
        <g id="trust" fill-rule="nonzero" fill="#F42175">
            <g id="noun_599920_cc">
                <path d="M81.35,7.499 C72.339,-2.019 57.266,-2.432 47.753,6.575 L43.774,10.27 L40.551,7.247 C31.487,-1.761 16.809,-2.011 7.469,6.835 C-1.81,15.626 -1.902,30.094 7.262,39.77 L18.979,52.139 C19.194,52.876 19.561,53.579 20.125,54.176 C20.688,54.772 21.373,55.177 22.101,55.432 L23.22,56.615 L22.508,57.285 C20.511,59.18 20.423,62.347 22.316,64.347 C23.232,65.316 24.472,65.869 25.806,65.907 C25.853,65.909 25.9,65.909 25.947,65.909 C27.228,65.909 28.443,65.427 29.376,64.542 L30.092,63.868 L31.944,65.823 C32.09,65.976 32.721,66.521 33.157,66.741 C34.13,67.726 35.415,68.232 36.707,68.232 C37.94,68.232 39.176,67.78 40.14,66.868 L42.164,64.95 L45.395,68.361 C46.348,69.368 47.635,69.921 49.02,69.921 C50.303,69.921 51.524,69.436 52.456,68.552 C53.477,67.585 54.022,66.231 53.985,64.805 L54.227,64.576 L55.807,66.242 C56.758,67.248 58.046,67.801 59.432,67.801 C59.434,67.801 59.434,67.801 59.434,67.801 C60.715,67.801 61.936,67.316 62.867,66.434 C64.867,64.539 64.954,61.372 63.059,59.373 L61.817,58.062 C62.096,58.11 62.381,58.136 62.669,58.136 C62.67,58.136 62.669,58.136 62.67,58.136 C63.941,58.136 65.148,57.655 66.067,56.782 C67.356,55.559 67.871,53.767 67.469,52.038 L71.536,48.187 L71.777,47.958 L71.777,47.958 L79.763,40.397 C84.416,35.995 87.169,30.225 87.517,24.155 C87.866,17.985 85.678,12.071 81.35,7.499 Z M8.156,7.561 C16.669,-0.501 29.826,-0.688 38.558,6.748 C38.562,6.752 38.564,6.758 38.568,6.761 L39.939,8.047 C40.072,8.181 40.213,8.297 40.343,8.434 C40.351,8.443 40.363,8.446 40.37,8.454 L60.577,27.411 C62.488,29.22 62.573,32.245 60.765,34.157 C59.89,35.083 58.703,35.612 57.429,35.647 C56.161,35.706 54.943,35.219 54.017,34.342 L39.712,20.81 L39.391,20.992 C39.342,21.021 34.323,23.736 27.16,16.959 C26.959,16.77 26.641,16.778 26.453,16.98 C26.265,17.182 26.272,17.497 26.474,17.687 C33.179,24.032 38.21,22.588 39.543,22.027 L43.187,25.473 L42.64,25.993 C42.638,25.993 42.638,25.993 42.638,25.993 L20.318,47.12 C20.081,47.346 19.87,47.593 19.683,47.854 C19.538,48.058 19.425,48.277 19.316,48.497 C19.287,48.557 19.247,48.608 19.218,48.669 C18.956,49.243 18.812,49.857 18.779,50.477 L7.991,39.087 C-0.791,29.813 -0.717,15.968 8.156,7.561 Z M24.178,55.71 L23.948,55.928 L23.762,55.733 C23.789,55.733 23.817,55.726 23.846,55.725 C23.956,55.723 24.066,55.72 24.178,55.71 Z M30.822,63.187 L31.797,62.298 C31.774,62.429 31.776,62.561 31.762,62.692 C31.743,62.856 31.719,63.018 31.717,63.184 C31.715,63.337 31.737,63.488 31.747,63.641 C31.762,63.809 31.768,63.976 31.798,64.142 C31.803,64.169 31.801,64.199 31.807,64.226 L30.822,63.187 Z M51.764,67.823 C51.018,68.53 50.042,68.919 49.016,68.919 C47.91,68.919 46.878,68.476 46.118,67.671 L42.888,64.262 L45.855,61.452 C45.836,61.562 45.83,61.675 45.82,61.786 C45.818,61.818 45.812,61.852 45.81,61.887 C45.793,62.144 45.806,62.399 45.836,62.652 C45.843,62.699 45.847,62.744 45.855,62.789 C45.894,63.037 45.957,63.283 46.042,63.523 C46.057,63.567 46.074,63.609 46.092,63.652 C46.186,63.896 46.301,64.135 46.446,64.367 C46.465,64.396 46.485,64.426 46.505,64.455 C46.663,64.697 46.841,64.934 47.052,65.156 C47.255,65.371 47.474,65.558 47.701,65.724 C47.878,65.854 48.063,65.954 48.25,66.056 C48.293,66.077 48.333,66.107 48.376,66.128 C48.961,66.417 49.584,66.575 50.222,66.575 C50.609,66.575 50.996,66.503 51.384,66.397 C51.422,66.386 51.461,66.372 51.5,66.36 C51.716,66.296 51.931,66.224 52.144,66.128 C52.273,66.068 52.4,65.989 52.527,65.919 C52.658,65.846 52.789,65.786 52.916,65.7 C52.919,65.698 52.923,65.696 52.928,65.693 C52.766,66.505 52.367,67.249 51.764,67.823 Z M62.174,65.702 C61.43,66.409 60.454,66.798 59.43,66.798 C59.43,66.798 59.43,66.798 59.428,66.798 C58.321,66.798 57.29,66.355 56.528,65.551 L54.95,63.886 L55.319,63.534 L58.385,60.634 C58.385,60.632 58.385,60.632 58.385,60.632 L60.751,58.393 L62.328,60.057 C63.844,61.655 63.773,64.188 62.174,65.702 Z M65.374,56.053 C64.641,56.749 63.678,57.132 62.664,57.132 L62.663,57.132 C62.48,57.132 62.301,57.12 62.12,57.096 L63.247,56.031 L66.596,52.86 C66.689,54.048 66.255,55.218 65.374,56.053 Z M86.516,24.096 C86.184,29.911 83.54,35.442 79.075,39.669 L70.846,47.458 L53.898,63.501 L53.898,63.499 L53.015,64.337 C51.386,65.88 49.191,65.964 47.773,64.466 C46.333,62.945 46.499,60.845 48.187,59.241 L48.187,59.241 L53.874,53.858 L60.937,47.17 C61.138,46.981 61.146,46.664 60.958,46.463 C60.768,46.265 60.452,46.254 60.251,46.443 L60.232,46.461 C60.232,46.461 60.23,46.461 60.23,46.463 L53.185,53.131 L47.501,58.51 C47.499,58.511 47.498,58.513 47.497,58.515 L39.445,66.136 C37.844,67.651 35.311,67.58 33.798,65.982 C32.285,64.383 32.355,61.85 33.952,60.336 L52.983,42.324 C53.182,42.134 53.192,41.816 53.003,41.617 C52.814,41.416 52.497,41.406 52.296,41.596 L52.222,41.665 C52.222,41.667 52.218,41.667 52.218,41.669 L29.746,62.812 L29.394,63.131 L29.4,63.138 L28.685,63.81 C27.91,64.543 26.888,64.934 25.83,64.903 C24.764,64.874 23.771,64.43 23.039,63.657 C21.525,62.056 21.596,59.523 23.191,58.011 L26.484,54.911 C26.728,54.751 26.963,54.575 27.183,54.368 L48.568,34.126 L48.578,34.116 L48.578,34.116 L48.579,34.114 C48.594,34.1 48.6,34.081 48.613,34.065 C48.728,33.925 48.765,33.741 48.704,33.577 C48.703,33.575 48.703,33.575 48.703,33.575 C48.68,33.514 48.646,33.458 48.599,33.409 C48.599,33.409 48.599,33.409 48.597,33.409 L48.597,33.407 C48.574,33.382 48.541,33.368 48.513,33.347 C48.488,33.328 48.463,33.305 48.435,33.291 C48.407,33.279 48.374,33.279 48.345,33.27 C48.312,33.263 48.282,33.249 48.248,33.249 C48.224,33.249 48.2,33.258 48.177,33.261 C48.138,33.266 48.097,33.267 48.06,33.281 C48.039,33.289 48.023,33.305 48.003,33.316 C47.965,33.337 47.924,33.354 47.892,33.385 L25.867,54.118 C25.387,54.419 24.846,54.612 24.285,54.685 C24.264,54.688 24.243,54.687 24.223,54.689 C23.971,54.718 23.714,54.724 23.459,54.708 C23.402,54.704 23.35,54.692 23.293,54.687 C23.076,54.664 22.859,54.621 22.648,54.56 C21.984,54.371 21.357,54.022 20.849,53.486 C20.425,53.039 20.138,52.515 19.961,51.965 L19.905,51.752 C19.772,51.25 19.746,50.74 19.805,50.244 C19.811,50.197 19.815,50.149 19.823,50.102 C19.844,49.964 19.873,49.83 19.909,49.694 C19.936,49.591 19.971,49.492 20.009,49.39 C20.058,49.251 20.113,49.117 20.177,48.983 C20.248,48.837 20.326,48.693 20.416,48.554 C20.457,48.492 20.501,48.43 20.545,48.368 C20.683,48.182 20.829,48.003 21.002,47.839 L43.911,26.155 L53.329,35.062 C54.409,36.084 55.809,36.642 57.292,36.642 C57.347,36.642 57.401,36.642 57.456,36.64 C58.998,36.597 60.431,35.955 61.491,34.836 C63.679,32.524 63.576,28.863 61.262,26.675 L44.502,10.952 L48.436,7.302 C57.551,-1.329 71.991,-0.934 80.623,8.183 C84.76,12.556 86.852,18.206 86.516,24.096 Z" id="Shape"></path>
            </g>
        </g>
    </g>
</svg>